 <svg version="1.1" xmlns="http://www.w3.org/2000/svg" xmlns:xlink="http://www.w3.org/1999/xlink" x="0px" y="0px" viewBox="0 0 800 800" enable-background="new 0 0 800 800" xml:space="preserve">

    
<g id="shadow">
    <ellipse opacity="0.4" fill="#1A1A1A" cx="301" cy="493.834" rx="174" ry="16.166"/>
</g>
<g id="Regina">
  

	<path id="leftArm" fill="#D8CAB6" d="M161,429c0-17.121-13.879-31-31-31l0,0c-17.121,0-31,13.879-31,31l0,0
		c0,17.121,13.879,31,31,31l0,0C147.121,460,161,446.121,161,429L161,429z"/>
	<path id="righArm" fill="#D8CAB6" d="M500,429c0-17.121-13.879-31-31-31l0,0c-17.121,0-31,13.879-31,31l0,0
		c0,17.121,13.879,31,31,31l0,0C486.121,460,500,446.121,500,429L500,429z"/>
	<ellipse id="body" fill="#F4E9D7" cx="299.379" cy="324.324" rx="205.15" ry="175.892"/>
	<g id="eyes">
		<g id="rightEye">
			
				<ellipse fill="#756456" cx="404.135" cy="336.351" rx="60.919" ry="53.872"/> 
      <clipPath id="SVGID_2_">
					<use xlink:href="#SVGID_1_"  overflow="visible"/>
				</clipPath>
			<g id = "rightSocket" clip-path="url(#SVGID_2_)">
				<defs>
					<circle id="SVGID_1_" cx="396.135" cy="331.351" r="33"/>
				</defs>
				<circle fill="#FFFFFF" cx="396.135" cy="331.352" r="32"/>
				<circle id="rightPupil" clip-path="url(#SVGID_2_)" cx="396.165" cy="331.593" r="26.486"/>
				
					<rect id="rightLid" x="310.455" y="271.422"  fill="#4C3E33" width="172" height="58"/>
			</g>
		</g>
		<g id="leftEye">
			
				<ellipse  fill="#756456" cx="197.135" cy="336.351" rx="60.918" ry="53.871"/>
			<g>
				<circle fill="#FFFFFF" cx="205.135" cy="331.352" r="32"/>
			</g>
      <clipPath id="SVGID_4_">
					<use xlink:href="#SVGID_3_"  overflow="visible"/>
				</clipPath>
			<g clip-path="url(#SVGID_4_)">
				<defs>
					<circle id="SVGID_3_" cx="205.135" cy="331.352" r="33"/>
				</defs>
				
				<circle id="leftPupil" clip-path="url(#SVGID_4_)" cx="205" cy="331.11" r="26.487"/>
				
					<rect id="leftLid" x="121.066" y="271.324" fill="#4C3E33" width="172" height="57.999"/>
			</g>
		</g>
	</g>
  
  <g id="snout">
	<path fill="#635244" d="M402.41,403.775c5.652,23.979-0.755,42.056-19.152,52.771
		c-18.079,10.944-48.147,14.527-82.447,14.821c-34.3-0.294-64.368-3.877-82.446-14.821c-18.398-10.716-24.805-28.793-19.154-52.771
		c13.154-49.107,58.795-86.567,101.6-85.398C343.616,317.208,389.257,354.668,402.41,403.775z"/>
	<path id="tounge" fill="#F4CEEC" d="M299.75,414h0.5c12.012,0,21.75-11.739,21.75-26.219v0.051
		c-8.963-5.676-16.832-8.83-21.465-8.83c-5.167,0-13.381,3.25-22.535,9.091v-0.312C278,402.261,287.738,414,299.75,414z"/>
	<g id="lip">
		<path fill="#706055" d="M373.611,460c16.245-11,21.902-27.944,16.912-50.904c-11.614-47.023-51.916-82.988-89.713-81.869
			c-37.796-1.119-78.098,34.704-89.712,81.728c-4.771,21.952,0.199,38.711,14.841,49.11c9.854-45.241,57.47-78.843,74.039-78.843
			c15.131,0,65.022,33.384,74.022,78.855v0.776c0,0.195-0.352,0.146-0.654,1.146H373.611z"/>
		<line fill="none" stroke="#534741" stroke-width="2" stroke-miterlimit="10" x1="300" y1="348" x2="300" y2="379"/>
	</g>
	
	<path id="nose" d="M273.268,334.087c-1.477-6.793,0.197-11.915,5.004-14.95c4.723-3.102,12.579-4.116,21.54-4.199
		c8.96,0.083,16.817,1.098,21.54,4.199c4.807,3.035,6.48,8.157,5.004,14.95c-3.436,13.913-15.36,24.526-26.543,24.194
		C288.628,358.613,276.704,348,273.268,334.087z"/>
  </g>
  <g id="ears">
		<path fill="#635244" d="M190.789,186.35c0,0-3.654-15.681-51.664-28.677c-19.325-5.231-77.572,40.583-86.027,62.565
			c-8.456,21.982,10.146,23.25,41.428,19.023c31.283-4.227,43.12-31.89,46.501-33.819c3.381-1.93,4.336-7.084,22.305-0.774
			C179.207,210.243,190.789,186.35,190.789,186.35z"/>
		<path fill="#635244" d="M412.059,186.35c0,0,3.654-15.681,51.664-28.677c19.324-5.231,77.571,40.583,86.026,62.565
			c8.456,21.982-10.146,23.25-41.429,19.023c-31.282-4.227-43.119-31.89-46.501-33.819c-3.382-1.93-4.336-7.084-22.306-0.774
			C423.641,210.243,412.059,186.35,412.059,186.35z"/>
	</g>
</g>
</svg>