 <svg width="452.72" height="74.48" viewBox="0 0 452.72 74.48" xmlns="http://www.w3.org/2000/svg">
            <g id="svgGroup" stroke-linecap="round" fill-rule="evenodd" font-size="9pt" stroke="#000" stroke-width="0.25mm" fill="none" style="stroke:#000;stroke-width:0.25mm;fill:none">
                <path d="M 2.299 64.617 A 2.951 2.951 0 0 0 3.04 64.72 A 1.957 1.957 0 0 0 3.289 64.705 Q 4.054 64.607 4.4 63.88 Q 4.8 63.04 5.2 62 A 4.131 4.131 0 0 1 5.678 61.107 A 4.904 4.904 0 0 1 6.56 60.16 A 2.734 2.734 0 0 0 6.69 60.045 Q 6.899 59.847 6.984 59.669 A 0.535 0.535 0 0 0 7.04 59.44 Q 7.04 58.8 5.6 58.8 A 7.452 7.452 0 0 0 4.383 58.896 A 5.347 5.347 0 0 0 1.56 60.24 Q 0 61.68 0 62.64 A 1.417 1.417 0 0 0 0.296 63.534 A 1.778 1.778 0 0 0 0.72 63.92 A 10.081 10.081 0 0 0 0.775 63.952 Q 1.614 64.438 2.299 64.617 Z" id="1" vector-effect="non-scaling-stroke"/>
                <path d="M 70.96 9.52 L 70.96 9.76 Q 68.96 13.12 67.64 17.88 A 83.619 83.619 0 0 0 65.839 25.958 A 94.161 94.161 0 0 0 65.52 27.92 A 4.459 4.459 0 0 1 66.089 27.958 A 5.287 5.287 0 0 1 66.36 28 Q 66.8 28.08 67.28 28.08 L 68.32 28.08 Q 68.96 28.08 69.76 28.12 Q 70.56 28.16 71.36 28.24 Q 74.16 27.44 77.32 26.32 A 40.17 40.17 0 0 0 82.719 23.961 A 36.806 36.806 0 0 0 83.24 23.68 A 22.188 22.188 0 0 0 85.608 22.185 Q 86.806 21.311 87.731 20.351 A 13.792 13.792 0 0 0 87.76 20.32 A 7.055 7.055 0 0 0 88.858 18.849 A 5.177 5.177 0 0 0 89.52 16.32 A 2.323 2.323 0 0 0 89.264 15.296 Q 88.905 14.561 88.042 13.778 A 9.505 9.505 0 0 0 87.84 13.6 Q 86.16 12.16 83.52 10.72 A 52.154 52.154 0 0 0 79.405 8.713 A 60.551 60.551 0 0 0 77.8 8.04 A 95.543 95.543 0 0 0 73.679 6.486 A 81.391 81.391 0 0 0 71.88 5.88 A 70.144 70.144 0 0 0 70.036 5.309 Q 69.208 5.066 68.479 4.879 A 30.488 30.488 0 0 0 67.12 4.56 Q 63.243 3.785 60.248 3.546 A 31.444 31.444 0 0 0 57.76 3.44 Q 57.117 3.44 56.602 3.466 A 14.933 14.933 0 0 0 56.36 3.48 A 13.003 13.003 0 0 0 55.791 3.53 A 9.469 9.469 0 0 0 55.28 3.6 A 1.93 1.93 0 0 1 55.062 3.491 Q 54.84 3.361 54.763 3.21 A 0.366 0.366 0 0 1 54.72 3.04 Q 54.72 2.475 56.092 1.848 A 10.43 10.43 0 0 1 56.48 1.68 A 15.552 15.552 0 0 1 57.935 1.174 Q 58.722 0.94 59.641 0.739 A 33.327 33.327 0 0 1 60.96 0.48 Q 63.68 0 66.4 0 A 28.604 28.604 0 0 1 68.266 0.059 A 25.713 25.713 0 0 1 68.56 0.08 A 11.15 11.15 0 0 1 69.768 0.237 A 9.121 9.121 0 0 1 70.48 0.4 Q 73.2 1.04 76.4 2.16 Q 79.6 3.28 82.8 4.8 Q 86 6.32 88.68 8.04 A 23.831 23.831 0 0 1 90.814 9.572 Q 92.059 10.581 92.96 11.64 Q 94.162 13.052 94.461 14.441 A 4.353 4.353 0 0 1 94.56 15.36 Q 94.56 17.212 92.795 18.829 A 9.458 9.458 0 0 1 92.16 19.36 A 215.352 215.352 0 0 1 87.842 22.538 A 261.362 261.362 0 0 1 85.04 24.52 A 34.797 34.797 0 0 1 79.231 27.77 A 41.813 41.813 0 0 1 76.24 28.96 Q 79.28 29.6 82.88 30.76 Q 86.48 31.92 90.04 33.6 Q 93.6 35.28 96.52 37.4 A 23.014 23.014 0 0 1 99.223 39.682 A 17.75 17.75 0 0 1 101.2 42 A 9.636 9.636 0 0 1 102.599 44.808 A 8.546 8.546 0 0 1 102.96 47.28 A 8.077 8.077 0 0 1 102.956 47.567 Q 102.941 47.978 102.88 48.16 Q 106.4 46.72 107.84 46.08 Q 109.27 45.445 109.438 45.44 A 0.088 0.088 0 0 1 109.44 45.44 A 0.481 0.481 0 0 1 109.494 45.443 Q 109.6 45.455 109.6 45.52 A 1.235 1.235 0 0 1 109.415 46.135 Q 108.991 46.87 107.6 47.76 Q 105.6 49.04 102.4 50.56 Q 101.28 54 98.2 57.36 A 43.669 43.669 0 0 1 93.556 61.713 A 52.831 52.831 0 0 1 90.92 63.72 Q 86.72 66.72 82.16 69.08 Q 77.6 71.44 73.4 72.88 A 39.137 39.137 0 0 1 70.531 73.75 Q 68.108 74.378 66.16 74.48 A 1.883 1.883 0 0 1 65.498 74.277 Q 65.003 74.027 64.48 73.48 Q 63.6 72.56 63.04 71.44 A 11.477 11.477 0 0 1 62.809 70.95 Q 62.496 70.244 62.481 69.877 A 0.886 0.886 0 0 1 62.48 69.84 A 3.055 3.055 0 0 1 62.861 68.458 Q 63.815 66.596 67.16 64.08 Q 71.84 60.56 80.4 57.2 A 695.378 695.378 0 0 0 84.915 55.457 Q 87.66 54.385 90 53.44 A 3015.694 3015.694 0 0 1 93.457 52.047 Q 95.034 51.412 96.441 50.848 A 1703.876 1703.876 0 0 1 97.36 50.48 Q 97.6 49.76 97.76 49.08 Q 97.92 48.4 97.92 47.76 Q 97.92 45.04 95.88 42.84 Q 93.968 40.778 90.895 39.102 A 28.032 28.032 0 0 0 90.48 38.88 A 46.559 46.559 0 0 0 86.194 36.917 A 58.753 58.753 0 0 0 82.92 35.72 Q 78.72 34.32 74.4 33.28 A 162.744 162.744 0 0 0 68.649 32.001 A 138.109 138.109 0 0 0 66.16 31.52 Q 66 31.6 65.68 31.8 A 4.206 4.206 0 0 1 65.249 32.034 A 5.14 5.14 0 0 1 64.96 32.16 Q 64.56 35.76 64.36 39.4 Q 64.16 43.04 64.16 46.4 Q 64.16 48.88 64.28 51.2 Q 64.4 53.52 64.56 55.6 A 26.826 26.826 0 0 0 65.178 53.625 A 29.994 29.994 0 0 0 65.28 53.24 Q 65.6 52 65.68 52 A 0.079 0.079 0 0 1 65.742 52.057 Q 65.84 52.261 65.84 53.2 Q 65.84 54.241 65.793 56.009 A 272.002 272.002 0 0 1 65.76 57.16 A 201.69 201.69 0 0 0 65.712 59.003 Q 65.696 59.727 65.688 60.376 A 102.023 102.023 0 0 0 65.68 61.6 A 48.561 48.561 0 0 0 65.682 61.959 Q 65.688 62.892 65.734 63.175 A 0.404 0.404 0 0 0 65.76 63.28 Q 65.76 63.36 65.52 63.36 A 2.439 2.439 0 0 1 65.243 63.341 Q 64.789 63.288 63.978 63.085 A 25.478 25.478 0 0 1 63.8 63.04 Q 62.56 62.72 61.52 62.16 A 3.508 3.508 0 0 1 61.005 61.826 Q 60.738 61.615 60.571 61.376 A 1.515 1.515 0 0 1 60.32 60.8 A 28.187 28.187 0 0 1 60.047 58.686 Q 59.944 57.587 59.892 56.315 A 67.05 67.05 0 0 1 59.84 53.6 Q 59.84 49.2 60.28 43.88 Q 60.72 38.56 61.28 33.2 Q 60.414 33.4 59.714 33.433 A 5.749 5.749 0 0 1 59.44 33.44 Q 59.36 33.44 58.24 33.16 Q 57.12 32.88 56.08 32.32 Q 55.04 31.76 55.04 30.96 A 0.423 0.423 0 0 1 55.146 30.711 Q 55.478 30.28 56.861 29.608 A 20.206 20.206 0 0 1 56.96 29.56 A 12.151 12.151 0 0 1 58.692 28.898 Q 59.605 28.622 60.675 28.425 A 24.677 24.677 0 0 1 61.84 28.24 Q 62.4 24.08 62.96 20.48 A 332.596 332.596 0 0 1 63.369 17.915 Q 63.7 15.89 64 14.24 A 5.798 5.798 0 0 1 63.699 14.611 Q 63.176 15.2 62.8 15.2 Q 62.64 15.2 62.64 14.88 A 2.06 2.06 0 0 1 62.647 14.713 Q 62.663 14.515 62.72 14.4 Q 62.956 13.772 63.539 12.526 A 73.807 73.807 0 0 1 63.56 12.48 Q 64.16 11.2 64.84 9.88 A 17.325 17.325 0 0 1 65.443 8.802 Q 65.774 8.258 66.114 7.805 A 10.145 10.145 0 0 1 66.24 7.64 A 5.596 5.596 0 0 1 66.544 7.282 Q 67.038 6.749 67.401 6.722 A 0.518 0.518 0 0 1 67.44 6.72 A 3.096 3.096 0 0 1 68.833 7.063 Q 69.259 7.276 69.68 7.619 A 5.802 5.802 0 0 1 69.8 7.72 Q 70.724 8.516 70.912 9.186 A 1.232 1.232 0 0 1 70.96 9.52 Z M 71.904 68.133 A 75.499 75.499 0 0 0 72.8 67.84 A 69.751 69.751 0 0 0 77.079 66.262 A 59.931 59.931 0 0 0 78.64 65.6 Q 81.36 64.4 84 62.72 Q 86.64 61.04 89.76 58.8 Q 91.68 57.44 93.08 56.12 Q 94.48 54.8 95.52 53.52 Q 91.84 55.04 87.96 56.52 Q 84.08 58 80.8 59.28 Q 79.058 59.95 76.952 61.125 A 47.266 47.266 0 0 0 76.12 61.6 Q 73.52 63.12 71.12 64.76 A 51.959 51.959 0 0 0 69.438 65.956 Q 68.624 66.562 67.938 67.131 A 26.146 26.146 0 0 0 67.16 67.8 A 12.712 12.712 0 0 0 66.572 68.36 Q 65.75 69.199 65.623 69.735 A 0.806 0.806 0 0 0 65.6 69.92 Q 69.107 69.026 71.904 68.133 Z" id="4" vector-effect="non-scaling-stroke"/>
                <path d="M 115.36 35.76 L 116.56 33.36 Q 116.922 32.697 117.375 32.329 A 2.177 2.177 0 0 1 117.68 32.12 Q 118.208 31.823 118.681 31.771 A 1.818 1.818 0 0 1 118.88 31.76 A 4.72 4.72 0 0 1 119.686 31.826 A 3.58 3.58 0 0 1 120.44 32.04 A 6.237 6.237 0 0 1 121.529 32.616 A 5.707 5.707 0 0 1 121.68 32.72 Q 122.56 32.32 123.56 31.96 Q 124.56 31.6 125.52 31.44 Q 128.56 30.32 131.84 29.64 Q 135.12 28.96 138.32 28.96 A 13.964 13.964 0 0 1 141.347 29.302 A 15.893 15.893 0 0 1 141.92 29.44 A 5.482 5.482 0 0 1 142.592 29.658 Q 143.32 29.953 143.594 30.386 A 1.051 1.051 0 0 1 143.76 30.96 Q 143.76 31.244 143.256 31.276 A 2.154 2.154 0 0 1 143.12 31.28 Q 142.02 31.28 140.654 31.044 A 21.611 21.611 0 0 1 140.2 30.96 Q 138.56 30.64 136.96 30.64 A 36.329 36.329 0 0 0 133.816 30.772 A 32.374 32.374 0 0 0 133.12 30.84 Q 131.28 31.04 129.68 31.44 A 4.454 4.454 0 0 1 131.345 32.721 A 5.808 5.808 0 0 1 131.8 33.36 A 5.33 5.33 0 0 1 132.443 34.954 Q 132.64 35.793 132.64 36.8 A 11.624 11.624 0 0 1 132.488 38.604 Q 132.346 39.507 132.07 40.52 A 25.616 25.616 0 0 1 131.56 42.16 A 39.099 39.099 0 0 1 129.833 46.324 A 47.253 47.253 0 0 1 128.68 48.56 Q 126.88 51.84 124.56 54.68 Q 122.24 57.52 119.76 59.28 A 11.288 11.288 0 0 1 117.998 60.318 Q 116.895 60.831 115.825 60.98 A 6.287 6.287 0 0 1 114.96 61.04 A 6.957 6.957 0 0 1 113.309 60.856 A 4.353 4.353 0 0 1 110.72 59.16 A 7.081 7.081 0 0 1 109.483 56.12 A 9.533 9.533 0 0 1 109.36 54.56 A 15.619 15.619 0 0 1 109.548 52.246 Q 109.726 51.059 110.075 49.712 A 36.557 36.557 0 0 1 110.72 47.52 A 114.519 114.519 0 0 1 112.839 41.58 A 99.312 99.312 0 0 1 113.6 39.68 Q 112.24 40.56 110.8 41.28 Q 109.36 42 108.24 42 Q 107.44 42 107.08 41.6 Q 106.72 41.2 106.72 40.72 Q 106.72 40.393 106.881 39.799 A 10.421 10.421 0 0 1 106.96 39.52 A 4.103 4.103 0 0 1 107.507 38.388 A 5.003 5.003 0 0 1 107.8 38 A 2.097 2.097 0 0 1 108.351 37.524 A 1.808 1.808 0 0 1 109.28 37.28 A 0.627 0.627 0 0 1 109.396 37.29 Q 109.6 37.328 109.6 37.52 Q 109.6 37.6 109.56 37.64 Q 109.52 37.68 109.52 37.76 A 0.771 0.771 0 0 0 109.456 37.94 A 0.653 0.653 0 0 0 109.44 38.08 Q 109.44 38.369 109.766 38.397 A 0.862 0.862 0 0 0 109.84 38.4 Q 110.003 38.4 110.222 38.363 A 4.362 4.362 0 0 0 110.44 38.32 Q 110.778 38.245 111.15 38.029 A 3.645 3.645 0 0 0 111.2 38 A 26.9 26.9 0 0 0 111.834 37.672 Q 112.112 37.523 112.414 37.355 A 47.831 47.831 0 0 0 113.04 37 Q 114.08 36.4 115.36 35.76 Z M 115.84 59.36 A 4.224 4.224 0 0 0 117.496 59.003 Q 118.392 58.624 119.32 57.84 Q 121.092 56.344 122.825 54.072 A 32.715 32.715 0 0 0 122.88 54 Q 124.64 51.68 126 49.2 Q 126.626 48.105 127.443 46.245 A 63.062 63.062 0 0 0 127.48 46.16 A 30.209 30.209 0 0 0 128.767 42.616 A 33.546 33.546 0 0 0 128.92 42.08 A 18.169 18.169 0 0 0 129.33 40.267 Q 129.491 39.324 129.516 38.472 A 10.642 10.642 0 0 0 129.52 38.16 A 6.228 6.228 0 0 0 129.409 36.951 Q 129.261 36.201 128.914 35.602 A 3.843 3.843 0 0 0 128.84 35.48 A 2.113 2.113 0 0 0 127.75 34.622 Q 127.368 34.48 126.889 34.429 A 5.373 5.373 0 0 0 126.32 34.4 A 4.266 4.266 0 0 0 125.659 34.457 Q 124.973 34.565 124.08 34.88 Q 122.72 35.36 121.2 36 Q 120.88 36.32 120.6 36.68 Q 120.32 37.04 120.16 37.44 Q 118.64 40.24 117.12 43.64 A 63.271 63.271 0 0 0 115.276 48.22 A 54.045 54.045 0 0 0 114.6 50.24 Q 113.835 52.69 113.655 54.671 A 12.968 12.968 0 0 0 113.6 55.84 A 8.278 8.278 0 0 0 113.679 57.036 Q 113.891 58.477 114.671 59.025 A 1.985 1.985 0 0 0 115.84 59.36 Z" id="5" vector-effect="non-scaling-stroke"/>
                <path d="M 149.68 42.32 L 149.68 41.6 Q 149.68 39.715 150.272 38.75 A 2.445 2.445 0 0 1 150.4 38.56 Q 151.052 37.691 151.703 37.609 A 1.088 1.088 0 0 1 151.84 37.6 A 1.369 1.369 0 0 1 152.423 37.715 Q 153.005 37.986 153.101 38.894 A 3.662 3.662 0 0 1 153.12 39.28 A 19.454 19.454 0 0 0 153.379 41.273 Q 153.627 42.654 154.08 44.24 Q 154.88 47.04 156.24 49.68 A 21.342 21.342 0 0 0 157.586 51.953 Q 158.388 53.126 159.28 54.04 Q 160.572 55.363 161.959 55.668 A 3.899 3.899 0 0 0 162.8 55.76 A 4.209 4.209 0 0 0 163.961 55.609 A 3.044 3.044 0 0 0 165.6 54.48 A 7.657 7.657 0 0 0 166.758 52.211 A 9.162 9.162 0 0 0 166.96 51.48 A 18.166 18.166 0 0 0 167.204 50.252 Q 167.302 49.644 167.338 49.104 A 9.239 9.239 0 0 0 167.36 48.48 A 22.993 22.993 0 0 0 167.17 45.435 Q 166.96 43.868 166.52 42.539 A 12.625 12.625 0 0 0 166.2 41.68 Q 165.312 39.536 164.26 38.096 A 10.309 10.309 0 0 0 163.6 37.28 A 4.983 4.983 0 0 1 162.787 37.088 Q 162.338 36.939 161.98 36.708 A 2.999 2.999 0 0 1 161.88 36.64 A 1.694 1.694 0 0 1 161.453 36.216 Q 161.204 35.853 161.2 35.375 A 1.873 1.873 0 0 1 161.2 35.36 A 1.692 1.692 0 0 1 161.222 35.078 Q 161.307 34.578 161.73 34.561 A 0.753 0.753 0 0 1 161.76 34.56 L 161.92 34.56 Q 163.28 34.96 166.4 35.2 A 79.5 79.5 0 0 0 172.295 35.44 A 73.191 73.191 0 0 0 172.48 35.44 A 61.705 61.705 0 0 0 174.208 35.417 Q 175.26 35.388 176.16 35.32 A 14.354 14.354 0 0 0 176.718 35.268 Q 177.624 35.164 178.009 34.973 A 0.835 0.835 0 0 0 178.16 34.88 A 5.654 5.654 0 0 1 178.272 34.826 Q 178.491 34.722 178.558 34.72 A 0.086 0.086 0 0 1 178.56 34.72 Q 178.849 34.72 178.877 35.045 A 0.862 0.862 0 0 1 178.88 35.12 Q 178.88 35.6 178.4 36 Q 177.436 36.594 174.682 36.981 A 36.674 36.674 0 0 1 174.24 37.04 Q 171.12 37.44 167.92 37.44 L 167.76 37.44 A 23.466 23.466 0 0 1 168.703 39.289 Q 169.475 40.97 170.2 43.12 Q 171.36 46.56 171.36 50.08 Q 171.36 53.12 169.52 55.52 A 6.95 6.95 0 0 1 168.128 56.911 A 5.092 5.092 0 0 1 165.04 57.92 A 13.244 13.244 0 0 1 161.936 57.571 A 10.523 10.523 0 0 1 159.16 56.48 Q 156.64 55.04 154.8 52.84 A 24.029 24.029 0 0 1 152.782 50.059 A 20.069 20.069 0 0 1 151.84 48.36 A 45.299 45.299 0 0 1 151.079 46.734 Q 150.728 45.942 150.46 45.238 A 21.29 21.29 0 0 1 150.16 44.4 Q 146 49.36 143.64 52.52 Q 141.833 54.939 140.73 56.515 A 61.143 61.143 0 0 0 140.12 57.4 Q 139.052 58.984 138.493 59.686 A 9.152 9.152 0 0 1 138.4 59.8 Q 138.026 60.254 137.617 60.405 A 1.196 1.196 0 0 1 137.2 60.48 Q 134.64 60.48 133.96 59.04 A 7.063 7.063 0 0 1 133.353 56.924 A 8.99 8.99 0 0 1 133.28 55.76 A 21.376 21.376 0 0 1 133.347 54.158 Q 133.472 52.499 133.835 50.296 A 72.859 72.859 0 0 1 133.96 49.56 A 45.973 45.973 0 0 1 134.574 46.661 Q 134.937 45.167 135.434 43.461 A 110.881 110.881 0 0 1 136.56 39.84 Q 137.435 37.279 138.334 36.01 A 4.726 4.726 0 0 1 138.84 35.4 Q 139.53 34.711 140.177 34.431 A 2.167 2.167 0 0 1 141.04 34.24 A 2.941 2.941 0 0 1 141.935 34.369 A 2.285 2.285 0 0 1 143.12 35.24 A 12.881 12.881 0 0 1 143.365 35.591 Q 143.728 36.133 143.814 36.412 A 0.518 0.518 0 0 1 143.84 36.56 Q 143.84 37.12 143.44 38.4 Q 143.04 39.68 142.4 40.8 Q 141.76 41.92 141.04 42.16 Q 140.618 42.823 140.037 44.214 A 42.698 42.698 0 0 0 139.64 45.2 Q 138.8 47.36 138.12 49.84 Q 137.44 52.32 137.44 54.16 A 4.847 4.847 0 0 0 137.464 54.657 Q 137.57 55.68 138.16 55.68 Q 138.72 55.68 139.68 54.64 Q 140.96 53.12 142.72 50.96 Q 144.48 48.8 146.36 46.48 A 388.294 388.294 0 0 0 147.921 44.542 Q 148.633 43.652 149.267 42.847 A 228.343 228.343 0 0 0 149.68 42.32 Z" id="6" vector-effect="non-scaling-stroke"/>
                <path d="M 195.28 42.32 L 195.28 41.6 Q 195.28 39.715 195.872 38.75 A 2.445 2.445 0 0 1 196 38.56 Q 196.652 37.691 197.303 37.609 A 1.088 1.088 0 0 1 197.44 37.6 A 1.369 1.369 0 0 1 198.023 37.715 Q 198.605 37.986 198.701 38.894 A 3.662 3.662 0 0 1 198.72 39.28 A 19.454 19.454 0 0 0 198.979 41.273 Q 199.227 42.654 199.68 44.24 Q 200.48 47.04 201.84 49.68 A 21.342 21.342 0 0 0 203.186 51.953 Q 203.988 53.126 204.88 54.04 Q 206.172 55.363 207.559 55.668 A 3.899 3.899 0 0 0 208.4 55.76 A 4.209 4.209 0 0 0 209.561 55.609 A 3.044 3.044 0 0 0 211.2 54.48 A 7.657 7.657 0 0 0 212.358 52.211 A 9.162 9.162 0 0 0 212.56 51.48 A 18.166 18.166 0 0 0 212.804 50.252 Q 212.902 49.644 212.938 49.104 A 9.239 9.239 0 0 0 212.96 48.48 A 22.993 22.993 0 0 0 212.77 45.435 Q 212.56 43.868 212.12 42.539 A 12.625 12.625 0 0 0 211.8 41.68 Q 210.912 39.536 209.86 38.096 A 10.309 10.309 0 0 0 209.2 37.28 A 4.983 4.983 0 0 1 208.387 37.088 Q 207.938 36.939 207.58 36.708 A 2.999 2.999 0 0 1 207.48 36.64 A 1.694 1.694 0 0 1 207.053 36.216 Q 206.804 35.853 206.8 35.375 A 1.873 1.873 0 0 1 206.8 35.36 A 1.692 1.692 0 0 1 206.822 35.078 Q 206.907 34.578 207.33 34.561 A 0.753 0.753 0 0 1 207.36 34.56 L 207.52 34.56 Q 208.88 34.96 212 35.2 A 79.5 79.5 0 0 0 217.895 35.44 A 73.191 73.191 0 0 0 218.08 35.44 A 61.705 61.705 0 0 0 219.808 35.417 Q 220.86 35.388 221.76 35.32 A 14.354 14.354 0 0 0 222.318 35.268 Q 223.224 35.164 223.609 34.973 A 0.835 0.835 0 0 0 223.76 34.88 A 5.654 5.654 0 0 1 223.872 34.826 Q 224.091 34.722 224.158 34.72 A 0.086 0.086 0 0 1 224.16 34.72 Q 224.449 34.72 224.477 35.045 A 0.862 0.862 0 0 1 224.48 35.12 Q 224.48 35.6 224 36 Q 223.036 36.594 220.282 36.981 A 36.674 36.674 0 0 1 219.84 37.04 Q 216.72 37.44 213.52 37.44 L 213.36 37.44 A 23.466 23.466 0 0 1 214.303 39.289 Q 215.075 40.97 215.8 43.12 Q 216.96 46.56 216.96 50.08 Q 216.96 53.12 215.12 55.52 A 6.95 6.95 0 0 1 213.728 56.911 A 5.092 5.092 0 0 1 210.64 57.92 A 13.244 13.244 0 0 1 207.536 57.571 A 10.523 10.523 0 0 1 204.76 56.48 Q 202.24 55.04 200.4 52.84 A 24.029 24.029 0 0 1 198.382 50.059 A 20.069 20.069 0 0 1 197.44 48.36 A 45.299 45.299 0 0 1 196.679 46.734 Q 196.328 45.942 196.06 45.238 A 21.29 21.29 0 0 1 195.76 44.4 Q 191.6 49.36 189.24 52.52 Q 187.433 54.939 186.33 56.515 A 61.143 61.143 0 0 0 185.72 57.4 Q 184.652 58.984 184.093 59.686 A 9.152 9.152 0 0 1 184 59.8 Q 183.626 60.254 183.217 60.405 A 1.196 1.196 0 0 1 182.8 60.48 Q 180.24 60.48 179.56 59.04 A 7.063 7.063 0 0 1 178.953 56.924 A 8.99 8.99 0 0 1 178.88 55.76 A 21.376 21.376 0 0 1 178.947 54.158 Q 179.072 52.499 179.435 50.296 A 72.859 72.859 0 0 1 179.56 49.56 A 45.973 45.973 0 0 1 180.174 46.661 Q 180.537 45.167 181.034 43.461 A 110.881 110.881 0 0 1 182.16 39.84 Q 183.035 37.279 183.934 36.01 A 4.726 4.726 0 0 1 184.44 35.4 Q 185.13 34.711 185.777 34.431 A 2.167 2.167 0 0 1 186.64 34.24 A 2.941 2.941 0 0 1 187.535 34.369 A 2.285 2.285 0 0 1 188.72 35.24 A 12.881 12.881 0 0 1 188.965 35.591 Q 189.328 36.133 189.414 36.412 A 0.518 0.518 0 0 1 189.44 36.56 Q 189.44 37.12 189.04 38.4 Q 188.64 39.68 188 40.8 Q 187.36 41.92 186.64 42.16 Q 186.218 42.823 185.637 44.214 A 42.698 42.698 0 0 0 185.24 45.2 Q 184.4 47.36 183.72 49.84 Q 183.04 52.32 183.04 54.16 A 4.847 4.847 0 0 0 183.064 54.657 Q 183.17 55.68 183.76 55.68 Q 184.32 55.68 185.28 54.64 Q 186.56 53.12 188.32 50.96 Q 190.08 48.8 191.96 46.48 A 388.294 388.294 0 0 0 193.521 44.542 Q 194.233 43.652 194.867 42.847 A 228.343 228.343 0 0 0 195.28 42.32 Z" id="7" vector-effect="non-scaling-stroke"/>
                <path d="M 257.04 9.52 L 257.04 9.76 Q 255.04 13.12 253.72 17.88 A 83.619 83.619 0 0 0 251.919 25.958 A 94.161 94.161 0 0 0 251.6 27.92 A 4.459 4.459 0 0 1 252.169 27.958 A 5.287 5.287 0 0 1 252.44 28 Q 252.88 28.08 253.36 28.08 L 254.4 28.08 Q 255.04 28.08 255.84 28.12 Q 256.64 28.16 257.44 28.24 Q 260.24 27.44 263.4 26.32 A 40.17 40.17 0 0 0 268.799 23.961 A 36.806 36.806 0 0 0 269.32 23.68 A 22.188 22.188 0 0 0 271.688 22.185 Q 272.886 21.311 273.811 20.351 A 13.792 13.792 0 0 0 273.84 20.32 A 7.055 7.055 0 0 0 274.938 18.849 A 5.177 5.177 0 0 0 275.6 16.32 A 2.323 2.323 0 0 0 275.344 15.296 Q 274.985 14.561 274.122 13.778 A 9.505 9.505 0 0 0 273.92 13.6 Q 272.24 12.16 269.6 10.72 A 52.154 52.154 0 0 0 265.485 8.713 A 60.551 60.551 0 0 0 263.88 8.04 A 95.543 95.543 0 0 0 259.759 6.486 A 81.391 81.391 0 0 0 257.96 5.88 A 70.144 70.144 0 0 0 256.116 5.309 Q 255.288 5.066 254.559 4.879 A 30.488 30.488 0 0 0 253.2 4.56 Q 249.323 3.785 246.328 3.546 A 31.444 31.444 0 0 0 243.84 3.44 Q 243.197 3.44 242.682 3.466 A 14.933 14.933 0 0 0 242.44 3.48 A 13.003 13.003 0 0 0 241.871 3.53 A 9.469 9.469 0 0 0 241.36 3.6 A 1.93 1.93 0 0 1 241.142 3.491 Q 240.92 3.361 240.843 3.21 A 0.366 0.366 0 0 1 240.8 3.04 Q 240.8 2.475 242.172 1.848 A 10.43 10.43 0 0 1 242.56 1.68 A 15.552 15.552 0 0 1 244.015 1.174 Q 244.802 0.94 245.721 0.739 A 33.327 33.327 0 0 1 247.04 0.48 Q 249.76 0 252.48 0 A 28.604 28.604 0 0 1 254.346 0.059 A 25.713 25.713 0 0 1 254.64 0.08 A 11.15 11.15 0 0 1 255.848 0.237 A 9.121 9.121 0 0 1 256.56 0.4 Q 259.28 1.04 262.48 2.16 Q 265.68 3.28 268.88 4.8 Q 272.08 6.32 274.76 8.04 A 23.831 23.831 0 0 1 276.894 9.572 Q 278.139 10.581 279.04 11.64 Q 280.242 13.052 280.541 14.441 A 4.353 4.353 0 0 1 280.64 15.36 Q 280.64 17.212 278.875 18.829 A 9.458 9.458 0 0 1 278.24 19.36 A 215.352 215.352 0 0 1 273.922 22.538 A 261.362 261.362 0 0 1 271.12 24.52 A 34.797 34.797 0 0 1 265.311 27.77 A 41.813 41.813 0 0 1 262.32 28.96 Q 265.36 29.6 268.96 30.76 Q 272.56 31.92 276.12 33.6 Q 279.68 35.28 282.6 37.4 A 23.014 23.014 0 0 1 285.303 39.682 A 17.75 17.75 0 0 1 287.28 42 A 9.636 9.636 0 0 1 288.679 44.808 A 8.546 8.546 0 0 1 289.04 47.28 A 8.077 8.077 0 0 1 289.036 47.567 Q 289.021 47.978 288.96 48.16 Q 292.48 46.72 293.92 46.08 Q 295.35 45.445 295.518 45.44 A 0.088 0.088 0 0 1 295.52 45.44 A 0.481 0.481 0 0 1 295.574 45.443 Q 295.68 45.455 295.68 45.52 A 1.235 1.235 0 0 1 295.495 46.135 Q 295.071 46.87 293.68 47.76 Q 291.68 49.04 288.48 50.56 Q 287.36 54 284.28 57.36 A 43.669 43.669 0 0 1 279.636 61.713 A 52.831 52.831 0 0 1 277 63.72 Q 272.8 66.72 268.24 69.08 Q 263.68 71.44 259.48 72.88 A 39.137 39.137 0 0 1 256.611 73.75 Q 254.188 74.378 252.24 74.48 A 1.883 1.883 0 0 1 251.578 74.277 Q 251.083 74.027 250.56 73.48 Q 249.68 72.56 249.12 71.44 A 11.477 11.477 0 0 1 248.889 70.95 Q 248.576 70.244 248.561 69.877 A 0.886 0.886 0 0 1 248.56 69.84 A 3.055 3.055 0 0 1 248.941 68.458 Q 249.895 66.596 253.24 64.08 Q 257.92 60.56 266.48 57.2 A 695.378 695.378 0 0 0 270.995 55.457 Q 273.74 54.385 276.08 53.44 A 3015.694 3015.694 0 0 1 279.537 52.047 Q 281.114 51.412 282.521 50.848 A 1703.876 1703.876 0 0 1 283.44 50.48 Q 283.68 49.76 283.84 49.08 Q 284 48.4 284 47.76 Q 284 45.04 281.96 42.84 Q 280.048 40.778 276.975 39.102 A 28.032 28.032 0 0 0 276.56 38.88 A 46.559 46.559 0 0 0 272.274 36.917 A 58.753 58.753 0 0 0 269 35.72 Q 264.8 34.32 260.48 33.28 A 162.744 162.744 0 0 0 254.729 32.001 A 138.109 138.109 0 0 0 252.24 31.52 Q 252.08 31.6 251.76 31.8 A 4.206 4.206 0 0 1 251.329 32.034 A 5.14 5.14 0 0 1 251.04 32.16 Q 250.64 35.76 250.44 39.4 Q 250.24 43.04 250.24 46.4 Q 250.24 48.88 250.36 51.2 Q 250.48 53.52 250.64 55.6 A 26.826 26.826 0 0 0 251.258 53.625 A 29.994 29.994 0 0 0 251.36 53.24 Q 251.68 52 251.76 52 A 0.079 0.079 0 0 1 251.822 52.057 Q 251.92 52.261 251.92 53.2 Q 251.92 54.241 251.873 56.009 A 272.002 272.002 0 0 1 251.84 57.16 A 201.69 201.69 0 0 0 251.792 59.003 Q 251.776 59.727 251.768 60.376 A 102.023 102.023 0 0 0 251.76 61.6 A 48.561 48.561 0 0 0 251.762 61.959 Q 251.768 62.892 251.814 63.175 A 0.404 0.404 0 0 0 251.84 63.28 Q 251.84 63.36 251.6 63.36 A 2.439 2.439 0 0 1 251.323 63.341 Q 250.869 63.288 250.058 63.085 A 25.478 25.478 0 0 1 249.88 63.04 Q 248.64 62.72 247.6 62.16 A 3.508 3.508 0 0 1 247.085 61.826 Q 246.818 61.615 246.651 61.376 A 1.515 1.515 0 0 1 246.4 60.8 A 28.187 28.187 0 0 1 246.127 58.686 Q 246.024 57.587 245.972 56.315 A 67.05 67.05 0 0 1 245.92 53.6 Q 245.92 49.2 246.36 43.88 Q 246.8 38.56 247.36 33.2 Q 246.494 33.4 245.794 33.433 A 5.749 5.749 0 0 1 245.52 33.44 Q 245.44 33.44 244.32 33.16 Q 243.2 32.88 242.16 32.32 Q 241.12 31.76 241.12 30.96 A 0.423 0.423 0 0 1 241.226 30.711 Q 241.558 30.28 242.941 29.608 A 20.206 20.206 0 0 1 243.04 29.56 A 12.151 12.151 0 0 1 244.772 28.898 Q 245.685 28.622 246.755 28.425 A 24.677 24.677 0 0 1 247.92 28.24 Q 248.48 24.08 249.04 20.48 A 332.596 332.596 0 0 1 249.449 17.915 Q 249.78 15.89 250.08 14.24 A 5.798 5.798 0 0 1 249.779 14.611 Q 249.256 15.2 248.88 15.2 Q 248.72 15.2 248.72 14.88 A 2.06 2.06 0 0 1 248.727 14.713 Q 248.743 14.515 248.8 14.4 Q 249.036 13.772 249.619 12.526 A 73.807 73.807 0 0 1 249.64 12.48 Q 250.24 11.2 250.92 9.88 A 17.325 17.325 0 0 1 251.523 8.802 Q 251.854 8.258 252.194 7.805 A 10.145 10.145 0 0 1 252.32 7.64 A 5.596 5.596 0 0 1 252.624 7.282 Q 253.118 6.749 253.481 6.722 A 0.518 0.518 0 0 1 253.52 6.72 A 3.096 3.096 0 0 1 254.913 7.063 Q 255.339 7.276 255.76 7.619 A 5.802 5.802 0 0 1 255.88 7.72 Q 256.804 8.516 256.992 9.186 A 1.232 1.232 0 0 1 257.04 9.52 Z M 257.984 68.133 A 75.499 75.499 0 0 0 258.88 67.84 A 69.751 69.751 0 0 0 263.159 66.262 A 59.931 59.931 0 0 0 264.72 65.6 Q 267.44 64.4 270.08 62.72 Q 272.72 61.04 275.84 58.8 Q 277.76 57.44 279.16 56.12 Q 280.56 54.8 281.6 53.52 Q 277.92 55.04 274.04 56.52 Q 270.16 58 266.88 59.28 Q 265.138 59.95 263.032 61.125 A 47.266 47.266 0 0 0 262.2 61.6 Q 259.6 63.12 257.2 64.76 A 51.959 51.959 0 0 0 255.518 65.956 Q 254.704 66.562 254.018 67.131 A 26.146 26.146 0 0 0 253.24 67.8 A 12.712 12.712 0 0 0 252.652 68.36 Q 251.83 69.199 251.703 69.735 A 0.806 0.806 0 0 0 251.68 69.92 Q 255.187 69.026 257.984 68.133 Z" id="9" vector-effect="non-scaling-stroke"/>
                <path d="M 301.44 35.76 L 302.64 33.36 Q 303.002 32.697 303.455 32.329 A 2.177 2.177 0 0 1 303.76 32.12 Q 304.288 31.823 304.761 31.771 A 1.818 1.818 0 0 1 304.96 31.76 A 4.72 4.72 0 0 1 305.766 31.826 A 3.58 3.58 0 0 1 306.52 32.04 A 6.237 6.237 0 0 1 307.609 32.616 A 5.707 5.707 0 0 1 307.76 32.72 Q 308.64 32.32 309.64 31.96 Q 310.64 31.6 311.6 31.44 Q 314.64 30.32 317.92 29.64 Q 321.2 28.96 324.4 28.96 A 13.964 13.964 0 0 1 327.427 29.302 A 15.893 15.893 0 0 1 328 29.44 A 5.482 5.482 0 0 1 328.672 29.658 Q 329.4 29.953 329.674 30.386 A 1.051 1.051 0 0 1 329.84 30.96 Q 329.84 31.244 329.336 31.276 A 2.154 2.154 0 0 1 329.2 31.28 Q 328.1 31.28 326.734 31.044 A 21.611 21.611 0 0 1 326.28 30.96 Q 324.64 30.64 323.04 30.64 A 36.329 36.329 0 0 0 319.896 30.772 A 32.374 32.374 0 0 0 319.2 30.84 Q 317.36 31.04 315.76 31.44 A 4.454 4.454 0 0 1 317.425 32.721 A 5.808 5.808 0 0 1 317.88 33.36 A 5.33 5.33 0 0 1 318.523 34.954 Q 318.72 35.793 318.72 36.8 A 11.624 11.624 0 0 1 318.568 38.604 Q 318.426 39.507 318.15 40.52 A 25.616 25.616 0 0 1 317.64 42.16 A 39.099 39.099 0 0 1 315.913 46.324 A 47.253 47.253 0 0 1 314.76 48.56 Q 312.96 51.84 310.64 54.68 Q 308.32 57.52 305.84 59.28 A 11.288 11.288 0 0 1 304.078 60.318 Q 302.975 60.831 301.905 60.98 A 6.287 6.287 0 0 1 301.04 61.04 A 6.957 6.957 0 0 1 299.389 60.856 A 4.353 4.353 0 0 1 296.8 59.16 A 7.081 7.081 0 0 1 295.563 56.12 A 9.533 9.533 0 0 1 295.44 54.56 A 15.619 15.619 0 0 1 295.628 52.246 Q 295.806 51.059 296.155 49.712 A 36.557 36.557 0 0 1 296.8 47.52 A 114.519 114.519 0 0 1 298.919 41.58 A 99.312 99.312 0 0 1 299.68 39.68 Q 298.32 40.56 296.88 41.28 Q 295.44 42 294.32 42 Q 293.52 42 293.16 41.6 Q 292.8 41.2 292.8 40.72 Q 292.8 40.393 292.961 39.799 A 10.421 10.421 0 0 1 293.04 39.52 A 4.103 4.103 0 0 1 293.587 38.388 A 5.003 5.003 0 0 1 293.88 38 A 2.097 2.097 0 0 1 294.431 37.524 A 1.808 1.808 0 0 1 295.36 37.28 A 0.627 0.627 0 0 1 295.476 37.29 Q 295.68 37.328 295.68 37.52 Q 295.68 37.6 295.64 37.64 Q 295.6 37.68 295.6 37.76 A 0.771 0.771 0 0 0 295.536 37.94 A 0.653 0.653 0 0 0 295.52 38.08 Q 295.52 38.369 295.846 38.397 A 0.862 0.862 0 0 0 295.92 38.4 Q 296.083 38.4 296.302 38.363 A 4.362 4.362 0 0 0 296.52 38.32 Q 296.858 38.245 297.23 38.029 A 3.645 3.645 0 0 0 297.28 38 A 26.9 26.9 0 0 0 297.914 37.672 Q 298.192 37.523 298.494 37.355 A 47.831 47.831 0 0 0 299.12 37 Q 300.16 36.4 301.44 35.76 Z M 301.92 59.36 A 4.224 4.224 0 0 0 303.576 59.003 Q 304.472 58.624 305.4 57.84 Q 307.172 56.344 308.905 54.072 A 32.715 32.715 0 0 0 308.96 54 Q 310.72 51.68 312.08 49.2 Q 312.706 48.105 313.523 46.245 A 63.062 63.062 0 0 0 313.56 46.16 A 30.209 30.209 0 0 0 314.847 42.616 A 33.546 33.546 0 0 0 315 42.08 A 18.169 18.169 0 0 0 315.41 40.267 Q 315.571 39.324 315.596 38.472 A 10.642 10.642 0 0 0 315.6 38.16 A 6.228 6.228 0 0 0 315.489 36.951 Q 315.341 36.201 314.994 35.602 A 3.843 3.843 0 0 0 314.92 35.48 A 2.113 2.113 0 0 0 313.83 34.622 Q 313.448 34.48 312.969 34.429 A 5.373 5.373 0 0 0 312.4 34.4 A 4.266 4.266 0 0 0 311.739 34.457 Q 311.053 34.565 310.16 34.88 Q 308.8 35.36 307.28 36 Q 306.96 36.32 306.68 36.68 Q 306.4 37.04 306.24 37.44 Q 304.72 40.24 303.2 43.64 A 63.271 63.271 0 0 0 301.356 48.22 A 54.045 54.045 0 0 0 300.68 50.24 Q 299.915 52.69 299.735 54.671 A 12.968 12.968 0 0 0 299.68 55.84 A 8.278 8.278 0 0 0 299.759 57.036 Q 299.971 58.477 300.751 59.025 A 1.985 1.985 0 0 0 301.92 59.36 Z" id="10" vector-effect="non-scaling-stroke"/>
                <path d="M 335.76 42.32 L 335.76 41.6 Q 335.76 39.715 336.352 38.75 A 2.445 2.445 0 0 1 336.48 38.56 Q 337.132 37.691 337.783 37.609 A 1.088 1.088 0 0 1 337.92 37.6 A 1.369 1.369 0 0 1 338.503 37.715 Q 339.085 37.986 339.181 38.894 A 3.662 3.662 0 0 1 339.2 39.28 A 19.454 19.454 0 0 0 339.459 41.273 Q 339.707 42.654 340.16 44.24 Q 340.96 47.04 342.32 49.68 A 21.342 21.342 0 0 0 343.666 51.953 Q 344.468 53.126 345.36 54.04 Q 346.652 55.363 348.039 55.668 A 3.899 3.899 0 0 0 348.88 55.76 A 4.209 4.209 0 0 0 350.041 55.609 A 3.044 3.044 0 0 0 351.68 54.48 A 7.657 7.657 0 0 0 352.838 52.211 A 9.162 9.162 0 0 0 353.04 51.48 A 18.166 18.166 0 0 0 353.284 50.252 Q 353.382 49.644 353.418 49.104 A 9.239 9.239 0 0 0 353.44 48.48 A 22.993 22.993 0 0 0 353.25 45.435 Q 353.04 43.868 352.6 42.539 A 12.625 12.625 0 0 0 352.28 41.68 Q 351.392 39.536 350.34 38.096 A 10.309 10.309 0 0 0 349.68 37.28 A 4.983 4.983 0 0 1 348.867 37.088 Q 348.418 36.939 348.06 36.708 A 2.999 2.999 0 0 1 347.96 36.64 A 1.694 1.694 0 0 1 347.533 36.216 Q 347.284 35.853 347.28 35.375 A 1.873 1.873 0 0 1 347.28 35.36 A 1.692 1.692 0 0 1 347.302 35.078 Q 347.387 34.578 347.81 34.561 A 0.753 0.753 0 0 1 347.84 34.56 L 348 34.56 Q 349.36 34.96 352.48 35.2 A 79.5 79.5 0 0 0 358.375 35.44 A 73.191 73.191 0 0 0 358.56 35.44 A 61.705 61.705 0 0 0 360.288 35.417 Q 361.34 35.388 362.24 35.32 A 14.354 14.354 0 0 0 362.798 35.268 Q 363.704 35.164 364.089 34.973 A 0.835 0.835 0 0 0 364.24 34.88 A 5.654 5.654 0 0 1 364.352 34.826 Q 364.571 34.722 364.638 34.72 A 0.086 0.086 0 0 1 364.64 34.72 Q 364.929 34.72 364.957 35.045 A 0.862 0.862 0 0 1 364.96 35.12 Q 364.96 35.6 364.48 36 Q 363.516 36.594 360.762 36.981 A 36.674 36.674 0 0 1 360.32 37.04 Q 357.2 37.44 354 37.44 L 353.84 37.44 A 23.466 23.466 0 0 1 354.783 39.289 Q 355.555 40.97 356.28 43.12 Q 357.44 46.56 357.44 50.08 Q 357.44 53.12 355.6 55.52 A 6.95 6.95 0 0 1 354.208 56.911 A 5.092 5.092 0 0 1 351.12 57.92 A 13.244 13.244 0 0 1 348.016 57.571 A 10.523 10.523 0 0 1 345.24 56.48 Q 342.72 55.04 340.88 52.84 A 24.029 24.029 0 0 1 338.862 50.059 A 20.069 20.069 0 0 1 337.92 48.36 A 45.299 45.299 0 0 1 337.159 46.734 Q 336.808 45.942 336.54 45.238 A 21.29 21.29 0 0 1 336.24 44.4 Q 332.08 49.36 329.72 52.52 Q 327.913 54.939 326.81 56.515 A 61.143 61.143 0 0 0 326.2 57.4 Q 325.132 58.984 324.573 59.686 A 9.152 9.152 0 0 1 324.48 59.8 Q 324.106 60.254 323.697 60.405 A 1.196 1.196 0 0 1 323.28 60.48 Q 320.72 60.48 320.04 59.04 A 7.063 7.063 0 0 1 319.433 56.924 A 8.99 8.99 0 0 1 319.36 55.76 A 21.376 21.376 0 0 1 319.427 54.158 Q 319.552 52.499 319.915 50.296 A 72.859 72.859 0 0 1 320.04 49.56 A 45.973 45.973 0 0 1 320.654 46.661 Q 321.017 45.167 321.514 43.461 A 110.881 110.881 0 0 1 322.64 39.84 Q 323.515 37.279 324.414 36.01 A 4.726 4.726 0 0 1 324.92 35.4 Q 325.61 34.711 326.257 34.431 A 2.167 2.167 0 0 1 327.12 34.24 A 2.941 2.941 0 0 1 328.015 34.369 A 2.285 2.285 0 0 1 329.2 35.24 A 12.881 12.881 0 0 1 329.445 35.591 Q 329.808 36.133 329.894 36.412 A 0.518 0.518 0 0 1 329.92 36.56 Q 329.92 37.12 329.52 38.4 Q 329.12 39.68 328.48 40.8 Q 327.84 41.92 327.12 42.16 Q 326.698 42.823 326.117 44.214 A 42.698 42.698 0 0 0 325.72 45.2 Q 324.88 47.36 324.2 49.84 Q 323.52 52.32 323.52 54.16 A 4.847 4.847 0 0 0 323.544 54.657 Q 323.65 55.68 324.24 55.68 Q 324.8 55.68 325.76 54.64 Q 327.04 53.12 328.8 50.96 Q 330.56 48.8 332.44 46.48 A 388.294 388.294 0 0 0 334.001 44.542 Q 334.713 43.652 335.347 42.847 A 228.343 228.343 0 0 0 335.76 42.32 Z" id="11" vector-effect="non-scaling-stroke"/>
                <path d="M 381.36 42.32 L 381.36 41.6 Q 381.36 39.715 381.952 38.75 A 2.445 2.445 0 0 1 382.08 38.56 Q 382.732 37.691 383.383 37.609 A 1.088 1.088 0 0 1 383.52 37.6 A 1.369 1.369 0 0 1 384.103 37.715 Q 384.685 37.986 384.781 38.894 A 3.662 3.662 0 0 1 384.8 39.28 A 19.454 19.454 0 0 0 385.059 41.273 Q 385.307 42.654 385.76 44.24 Q 386.56 47.04 387.92 49.68 A 21.342 21.342 0 0 0 389.266 51.953 Q 390.068 53.126 390.96 54.04 Q 392.252 55.363 393.639 55.668 A 3.899 3.899 0 0 0 394.48 55.76 A 4.209 4.209 0 0 0 395.641 55.609 A 3.044 3.044 0 0 0 397.28 54.48 A 7.657 7.657 0 0 0 398.438 52.211 A 9.162 9.162 0 0 0 398.64 51.48 A 18.166 18.166 0 0 0 398.884 50.252 Q 398.982 49.644 399.018 49.104 A 9.239 9.239 0 0 0 399.04 48.48 A 22.993 22.993 0 0 0 398.85 45.435 Q 398.64 43.868 398.2 42.539 A 12.625 12.625 0 0 0 397.88 41.68 Q 396.992 39.536 395.94 38.096 A 10.309 10.309 0 0 0 395.28 37.28 A 4.983 4.983 0 0 1 394.467 37.088 Q 394.018 36.939 393.66 36.708 A 2.999 2.999 0 0 1 393.56 36.64 A 1.694 1.694 0 0 1 393.133 36.216 Q 392.884 35.853 392.88 35.375 A 1.873 1.873 0 0 1 392.88 35.36 A 1.692 1.692 0 0 1 392.902 35.078 Q 392.987 34.578 393.41 34.561 A 0.753 0.753 0 0 1 393.44 34.56 L 393.6 34.56 Q 394.96 34.96 398.08 35.2 A 79.5 79.5 0 0 0 403.975 35.44 A 73.191 73.191 0 0 0 404.16 35.44 A 61.705 61.705 0 0 0 405.888 35.417 Q 406.94 35.388 407.84 35.32 A 14.354 14.354 0 0 0 408.398 35.268 Q 409.304 35.164 409.689 34.973 A 0.835 0.835 0 0 0 409.84 34.88 A 5.654 5.654 0 0 1 409.952 34.826 Q 410.171 34.722 410.238 34.72 A 0.086 0.086 0 0 1 410.24 34.72 Q 410.529 34.72 410.557 35.045 A 0.862 0.862 0 0 1 410.56 35.12 Q 410.56 35.6 410.08 36 Q 409.116 36.594 406.362 36.981 A 36.674 36.674 0 0 1 405.92 37.04 Q 402.8 37.44 399.6 37.44 L 399.44 37.44 A 23.466 23.466 0 0 1 400.383 39.289 Q 401.155 40.97 401.88 43.12 Q 403.04 46.56 403.04 50.08 Q 403.04 53.12 401.2 55.52 A 6.95 6.95 0 0 1 399.808 56.911 A 5.092 5.092 0 0 1 396.72 57.92 A 13.244 13.244 0 0 1 393.616 57.571 A 10.523 10.523 0 0 1 390.84 56.48 Q 388.32 55.04 386.48 52.84 A 24.029 24.029 0 0 1 384.462 50.059 A 20.069 20.069 0 0 1 383.52 48.36 A 45.299 45.299 0 0 1 382.759 46.734 Q 382.408 45.942 382.14 45.238 A 21.29 21.29 0 0 1 381.84 44.4 Q 377.68 49.36 375.32 52.52 Q 373.513 54.939 372.41 56.515 A 61.143 61.143 0 0 0 371.8 57.4 Q 370.732 58.984 370.173 59.686 A 9.152 9.152 0 0 1 370.08 59.8 Q 369.706 60.254 369.297 60.405 A 1.196 1.196 0 0 1 368.88 60.48 Q 366.32 60.48 365.64 59.04 A 7.063 7.063 0 0 1 365.033 56.924 A 8.99 8.99 0 0 1 364.96 55.76 A 21.376 21.376 0 0 1 365.027 54.158 Q 365.152 52.499 365.515 50.296 A 72.859 72.859 0 0 1 365.64 49.56 A 45.973 45.973 0 0 1 366.254 46.661 Q 366.617 45.167 367.114 43.461 A 110.881 110.881 0 0 1 368.24 39.84 Q 369.115 37.279 370.014 36.01 A 4.726 4.726 0 0 1 370.52 35.4 Q 371.21 34.711 371.857 34.431 A 2.167 2.167 0 0 1 372.72 34.24 A 2.941 2.941 0 0 1 373.615 34.369 A 2.285 2.285 0 0 1 374.8 35.24 A 12.881 12.881 0 0 1 375.045 35.591 Q 375.408 36.133 375.494 36.412 A 0.518 0.518 0 0 1 375.52 36.56 Q 375.52 37.12 375.12 38.4 Q 374.72 39.68 374.08 40.8 Q 373.44 41.92 372.72 42.16 Q 372.298 42.823 371.717 44.214 A 42.698 42.698 0 0 0 371.32 45.2 Q 370.48 47.36 369.8 49.84 Q 369.12 52.32 369.12 54.16 A 4.847 4.847 0 0 0 369.144 54.657 Q 369.25 55.68 369.84 55.68 Q 370.4 55.68 371.36 54.64 Q 372.64 53.12 374.4 50.96 Q 376.16 48.8 378.04 46.48 A 388.294 388.294 0 0 0 379.601 44.542 Q 380.313 43.652 380.947 42.847 A 228.343 228.343 0 0 0 381.36 42.32 Z" id="12" vector-effect="non-scaling-stroke"/>
                <path d="M 412.299 64.617 A 2.951 2.951 0 0 0 413.04 64.72 A 1.957 1.957 0 0 0 413.289 64.705 Q 414.054 64.607 414.4 63.88 Q 414.8 63.04 415.2 62 A 4.131 4.131 0 0 1 415.678 61.107 A 4.904 4.904 0 0 1 416.56 60.16 A 2.734 2.734 0 0 0 416.69 60.045 Q 416.899 59.847 416.984 59.669 A 0.535 0.535 0 0 0 417.04 59.44 Q 417.04 58.8 415.6 58.8 A 7.452 7.452 0 0 0 414.383 58.896 A 5.347 5.347 0 0 0 411.56 60.24 Q 410 61.68 410 62.64 A 1.417 1.417 0 0 0 410.296 63.534 A 1.778 1.778 0 0 0 410.72 63.92 A 10.081 10.081 0 0 0 410.775 63.952 Q 411.614 64.438 412.299 64.617 Z" id="13" vector-effect="non-scaling-stroke"/>
                <path d="M 430.139 64.617 A 2.951 2.951 0 0 0 430.88 64.72 A 1.957 1.957 0 0 0 431.129 64.705 Q 431.894 64.607 432.24 63.88 Q 432.64 63.04 433.04 62 A 4.131 4.131 0 0 1 433.518 61.107 A 4.904 4.904 0 0 1 434.4 60.16 A 2.734 2.734 0 0 0 434.53 60.045 Q 434.739 59.847 434.824 59.669 A 0.535 0.535 0 0 0 434.88 59.44 Q 434.88 58.8 433.44 58.8 A 7.452 7.452 0 0 0 432.223 58.896 A 5.347 5.347 0 0 0 429.4 60.24 Q 427.84 61.68 427.84 62.64 A 1.417 1.417 0 0 0 428.136 63.534 A 1.778 1.778 0 0 0 428.56 63.92 A 10.081 10.081 0 0 0 428.615 63.952 Q 429.454 64.438 430.139 64.617 Z" id="14" vector-effect="non-scaling-stroke"/>
                <path d="M 447.979 64.617 A 2.951 2.951 0 0 0 448.72 64.72 A 1.957 1.957 0 0 0 448.969 64.705 Q 449.734 64.607 450.08 63.88 Q 450.48 63.04 450.88 62 A 4.131 4.131 0 0 1 451.358 61.107 A 4.904 4.904 0 0 1 452.24 60.16 A 2.734 2.734 0 0 0 452.37 60.045 Q 452.579 59.847 452.664 59.669 A 0.535 0.535 0 0 0 452.72 59.44 Q 452.72 58.8 451.28 58.8 A 7.452 7.452 0 0 0 450.063 58.896 A 5.347 5.347 0 0 0 447.24 60.24 Q 445.68 61.68 445.68 62.64 A 1.417 1.417 0 0 0 445.976 63.534 A 1.778 1.778 0 0 0 446.4 63.92 A 10.081 10.081 0 0 0 446.455 63.952 Q 447.294 64.438 447.979 64.617 Z" id="15" vector-effect="non-scaling-stroke"/>
            </g>
</svg>
